<svg xmlns="http://www.w3.org/2000/svg" data-name="Layer 1" viewBox="0 0 512 640" x="0px" y="0px"><title>N_P_057Artboard 1 copy 2</title><path d="M132.34,396.48a97.37,97.37,0,0,1-39.77-8.69C59.33,373,37.37,342.69,38,312.48c.33-17.48,8.92-49.7,61.78-72.46-8.91-29.72,1.39-64.14,27.61-91C155,120.69,191.65,109,220.79,119.13c20.67,7.21,46.38,28.22,54.6,86.76,40.05-29.27,86.92-22.65,111,2.2,15.4,15.88,23.23,41.91,4.51,71,24.09-5.61,48.46-.59,65.34,14.26,15.37,13.51,21.27,32.43,15.83,50.68-3.56,21.32-20.58,37.7-46.75,45-30.62,8.5-75.1,3.24-100.82-22.4-15.28,16.3-40,26.28-67.38,27-25.71.66-48.77-6.95-63-20.54C175.92,388.52,154.42,396.48,132.34,396.48Zm66.37-270.61c-21.37,0-44.89,10.86-64,30.39-19.42,19.91-35.85,52.65-23.71,84.86a5.19,5.19,0,0,1-2.92,6.64C70.07,263,48.82,286.09,48.32,312.67c-.5,26.11,19,52.49,48.48,65.64,32.47,14.5,67.63,8.42,94.07-16.23a5.2,5.2,0,0,1,3.82-1.38,5.13,5.13,0,0,1,3.64,1.79c11.56,13.44,34,21.4,58.54,20.76,26.84-.69,50.54-11,63.4-27.59a5.18,5.18,0,0,1,4-2,5.1,5.1,0,0,1,4.07,1.84c22.06,26.18,65,31.67,94.22,23.55,22.24-6.18,36.58-19.65,39.35-37a4.18,4.18,0,0,1,.16-.7c4.39-14.35-.34-29.38-12.66-40.21-13.51-11.88-40.24-20.81-71.07-6.85a5.19,5.19,0,0,1-5.95-8.24c22.93-24.9,25.4-51.35,6.58-70.76-22.26-22.95-67.32-27.6-104.21,4.35a5.2,5.2,0,0,1-8.56-3.4c-4.85-47.68-21.74-77.88-48.82-87.34A56.69,56.69,0,0,0,198.71,125.87Z"/></svg>