<svg xmlns="http://www.w3.org/2000/svg" data-name="Layer 1" viewBox="0 0 512 640" x="0px" y="0px"><title>N_P_057Artboard 1 copy 9</title><path d="M177.78,392.7a152.9,152.9,0,0,1-24.62-2c-28.43-4.69-50.62-16.69-59-31.67-56-9.13-70.66-37.3-74.4-53.45-6-26,7.52-57.23,32.19-74.2,17.43-12,36.39-14.35,53.34-7-1.15-41.69,29.51-85.08,72.4-100,42.35-14.73,83.46,2.82,111.12,47,17.22-16.05,50.42-20.24,75.82-8.43,20.33,9.46,30.15,26.78,27.8,48.29,23-5.82,48.57-.26,62.4,14.31,7,7.36,16.6,23.26,6.86,49.74,15.24,3.43,26.09,12.39,30.22,25.24a36.6,36.6,0,0,1-10.21,37.84c-9.92,8.94-23.69,11.33-38.58,6.95-.79,16.27-12,29.05-32.16,36.47-44.22,16.23-124.7,4.64-148.69-19.7C239,384.64,206.66,392.7,177.78,392.7Zm-92.4-162c-9.14,0-18.55,3.1-27.51,9.26-21.3,14.65-33.06,41.27-28,63.31,5.53,23.88,29.85,40.2,68.49,45.94a5.16,5.16,0,0,1,4,3.05c5.63,12.82,26.22,23.9,52.47,28.23,32.3,5.32,76.59.34,104-29.65a5.19,5.19,0,0,1,8.25.79c13.39,21.8,95.33,37,140.34,20.48,18.95-7,27.37-18.23,25-33.52a5.19,5.19,0,0,1,7.22-5.53c14.09,6.22,26.57,5.38,35.14-2.34a26.07,26.07,0,0,0,7.27-27c-3.45-10.75-13.46-17.57-28.19-19.22a5.17,5.17,0,0,1-4.14-7.3c8.45-18.55,7.62-33.94-2.39-44.49-12.62-13.29-38.8-17.27-59.61-9.06a5.19,5.19,0,0,1-6.93-6.09c6.94-27.77-9.88-40.23-20.52-45.18-23.18-10.79-56.27-5.55-68.08,10.77a5.29,5.29,0,0,1-4.49,2.15,5.2,5.2,0,0,1-4.22-2.62c-25.32-44.66-62.63-62.34-102.36-48.5-41.83,14.55-70.84,58.8-64.66,98.63a5.18,5.18,0,0,1-8,5.09A40.88,40.88,0,0,0,85.38,230.69Z"/></svg>