<svg xmlns="http://www.w3.org/2000/svg" xmlns:xlink="http://www.w3.org/1999/xlink" version="1.1" x="0px" y="0px" viewBox="0 0 100 125" style="enable-background:new 0 0 100 100;" xml:space="preserve"><path d="M74.168457,50c0-13.3969727-10.8417969-24.2963867-24.168457-24.2963867S25.831543,36.6030273,25.831543,50  S36.6733398,74.2963867,50,74.2963867S74.168457,63.3969727,74.168457,50z M50,72.2963867  c-12.2236328,0-22.168457-10.0019531-22.168457-22.2963867S37.7763672,27.7036133,50,27.7036133S72.168457,37.7055664,72.168457,50  S62.2236328,72.2963867,50,72.2963867z"/><path d="M51,19.1865234v-8.1855469c0-0.5522461-0.4477539-1-1-1s-1,0.4477539-1,1v8.1855469c0,0.5522461,0.4477539,1,1,1  S51,19.7387695,51,19.1865234z"/><path d="M34.59375,24.3149414c0.1694336,0,0.3413086-0.0429688,0.4990234-0.1337891  c0.4785156-0.2763672,0.6420898-0.8876953,0.3662109-1.3662109l-4.0927734-7.0893555  C31.0893555,15.2470703,30.4785156,15.0830078,30,15.359375s-0.6420898,0.8876953-0.3662109,1.3662109l4.0927734,7.0893555  C33.9121094,24.1357422,34.2480469,24.3149414,34.59375,24.3149414z"/><path d="M15.7250977,31.3666992l7.0893555,4.0927734c0.1577148,0.0908203,0.3295898,0.1337891,0.4990234,0.1337891  c0.3457031,0,0.6816406-0.1791992,0.8671875-0.5c0.2758789-0.4785156,0.1123047-1.0898438-0.3662109-1.3662109l-7.0893555-4.0927734  c-0.4804688-0.2773438-1.0898438-0.1123047-1.3662109,0.3662109C15.0830078,30.4790039,15.246582,31.090332,15.7250977,31.3666992z"/><path d="M11,51.0004883h8.1860352c0.5522461,0,1-0.4477539,1-1s-0.4477539-1-1-1H11c-0.5522461,0-1,0.4477539-1,1  S10.4477539,51.0004883,11,51.0004883z"/><path d="M15.3588867,70c0.1855469,0.3208008,0.5214844,0.5,0.8671875,0.5c0.1694336,0,0.3413086-0.0429688,0.4990234-0.1337891  l7.0893555-4.0927734c0.4785156-0.2763672,0.6420898-0.8876953,0.3662109-1.3662109  c-0.2768555-0.4785156-0.887207-0.6430664-1.3662109-0.3662109l-7.0893555,4.0927734  C15.246582,68.9101562,15.0830078,69.5214844,15.3588867,70z"/><path d="M33.7265625,76.1860352l-4.0927734,7.0888672C29.3579102,83.753418,29.5214844,84.3647461,30,84.6411133  c0.1577148,0.0908203,0.3295898,0.1337891,0.4990234,0.1337891c0.3457031,0,0.6816406-0.1791992,0.8671875-0.5l4.0927734-7.0888672  c0.2758789-0.4785156,0.1123047-1.0898438-0.3662109-1.3662109C34.612793,75.5424805,34.0024414,75.7080078,33.7265625,76.1860352z"/><path d="M49,80.8139648V89c0,0.5522461,0.4477539,1,1,1s1-0.4477539,1-1v-8.1860352c0-0.5522461-0.4477539-1-1-1  S49,80.2617188,49,80.8139648z"/><path d="M64.9072266,75.8198242c-0.4785156,0.2763672-0.6420898,0.8876953-0.3662109,1.3662109l4.0927734,7.0888672  c0.1855469,0.3208008,0.5214844,0.5,0.8671875,0.5c0.1694336,0,0.3417969-0.0429688,0.4990234-0.1337891  c0.4785156-0.2763672,0.6420898-0.8876953,0.3662109-1.3662109l-4.0927734-7.0888672  C65.996582,75.7080078,65.3847656,75.5424805,64.9072266,75.8198242z"/><path d="M84.2749023,68.6337891l-7.0893555-4.0927734c-0.4799805-0.2768555-1.090332-0.1123047-1.3662109,0.3662109  s-0.1123047,1.0898438,0.3662109,1.3662109l7.0893555,4.0927734C83.4326172,70.4570312,83.6044922,70.5,83.7739258,70.5  c0.3457031,0,0.6816406-0.1791992,0.8671875-0.5C84.9169922,69.5214844,84.753418,68.9101562,84.2749023,68.6337891z"/><path d="M89,49.0004883h-8.1860352c-0.5522461,0-1,0.4477539-1,1s0.4477539,1,1,1H89c0.5522461,0,1-0.4477539,1-1  S89.5522461,49.0004883,89,49.0004883z"/><path d="M84.6411133,30.0004883c-0.2773438-0.4785156-0.8867188-0.6435547-1.3662109-0.3662109l-7.0893555,4.0927734  c-0.4785156,0.2763672-0.6420898,0.8876953-0.3662109,1.3662109c0.1855469,0.3208008,0.5214844,0.5,0.8671875,0.5  c0.1694336,0,0.3413086-0.0429688,0.4990234-0.1337891l7.0893555-4.0927734  C84.753418,31.090332,84.9169922,30.4790039,84.6411133,30.0004883z"/><path d="M65.40625,24.3149414c0.3457031,0,0.6816406-0.1791992,0.8671875-0.5l4.0927734-7.0893555  C70.6420898,16.2470703,70.4785156,15.6357422,70,15.359375c-0.480957-0.2763672-1.090332-0.1123047-1.3662109,0.3662109  l-4.0927734,7.0893555c-0.2758789,0.4785156-0.1123047,1.0898438,0.3662109,1.3662109  C65.0649414,24.2719727,65.2368164,24.3149414,65.40625,24.3149414z"/></svg>