<svg xmlns="http://www.w3.org/2000/svg" xmlns:xlink="http://www.w3.org/1999/xlink" version="1.1" x="0px" y="0px" viewBox="0 0 100 125" enable-background="new 0 0 100 100" xml:space="preserve"><path d="M97.521,50.503c0,26.141-21.191,47.332-47.332,47.332c-26.141,0-47.332-21.191-47.332-47.332  c0-26.139,21.191-47.332,47.332-47.332C76.33,3.171,97.521,24.364,97.521,50.503L97.521,50.503z M53.305,48.864  c-0.906-1.721-3.035-2.381-4.755-1.477c-0.629,0.332-1.143,0.848-1.473,1.477H19.78L37.854,30.79l-2.32-2.32L13.5,50.503  l22.033,22.035l2.32-2.32L19.78,52.144h27.297c0.904,1.721,3.033,2.379,4.753,1.475c0.629-0.332,1.143-0.846,1.475-1.475h27.297  L62.525,70.218l2.32,2.32l22.033-22.035L64.846,28.47l-2.32,2.32l18.076,18.074H53.305z"/></svg>